<?xml version="1.0" encoding="UTF-8" standalone="no"?>
<!-- Created with Inkscape (http://www.inkscape.org/) -->

<svg
   width="68.934593mm"
   height="58.754196mm"
   viewBox="0 0 68.934593 58.754196"
   version="1.1"
   id="svg1"
   xml:space="preserve"
   xmlns="http://www.w3.org/2000/svg"
   xmlns:svg="http://www.w3.org/2000/svg"><defs
     id="defs1" /><g
     id="layer1"
     transform="translate(-124.71016,-215.53547)"><g
       id="g14"
       transform="translate(46.124989,184.89026)"><path
         id="path13"
         style="fill:#ef6ac7;fill-opacity:1"
         d="m 110.49069,42.752775 11.16603,11.190284 c -8.4929,-24.955294 24.89419,-13.717108 3.56355,1.786872 0.20767,-0.01688 7.25201,1.650574 11.69306,-2.82654 -0.12957,1.203772 -0.30705,2.24947 -0.78168,3.194441 1.02202,0.756096 2.22138,0.758059 3.01308,1.022429 -5.32894,3.341042 -12.36695,1.403846 -13.77151,0.518598 3.13593,3.172415 9.22735,9.237858 10.59854,10.603106 0.1539,0.15323 0.41093,0.161332 0.57295,0.01668 12.60221,-11.251646 14.49997,-23.977055 4.92335,-32.352722 -12.26553,-10.727382 -24.19642,-1.316817 -30.97737,6.846853 z m 17.23695,-1.14312 c -5.06627,-1.310923 -4.89307,8.758275 -3.98481,12.874875 4.19062,-3.492735 8.02556,-11.82931 3.98481,-12.874875 z m -19.19087,3.09171 c -5.94676,5.684262 -11.622619,11.641202 -17.445775,17.479711 -2.074718,2.080189 -2.094025,5.429538 -0.0155,7.508695 l 18.079415,18.084914 a 5.5450141,5.5450141 179.97024 0 0 7.8471,-0.0041 L 134.28562,70.44579 123.61714,59.769613 c -0.0834,-0.0835 -0.10656,-0.06588 -0.0696,0.04601 0.52354,1.584866 1.81469,10.567357 -1.58262,13.717698 -0.0592,-0.592062 -0.33965,-2.250918 -0.6906,-2.877759 -0.98427,0.273599 -2.12515,0.67992 -3.09981,0.424639 3.55549,-3.183684 3.82802,-10.757242 3.40662,-11.799044 -17.89537,21.15481 -25.164659,-13.082415 -2.01348,-3.455384 0.10899,0.04532 0.12628,0.01946 0.0426,-0.06241 -1.34552,-1.317032 -11.01713,-11.099961 -11.07352,-11.061995 z m -0.90037,17.665544 c 1.54776,3.303835 11.29929,-2.458469 12.60348,-4.319564 -10.61177,-2.522769 -14.29386,0.71128 -12.60348,4.319564 z" /><path
         style="fill:#8770e1;fill-opacity:1"
         d="m 111.31122,36.763405 c 0.0534,0.04541 -4.9192,4.882823 -4.9192,4.882823 -14.248737,-10.878505 -26.012023,3.950492 -16.582374,16.605243 0,0 -4.028776,4.02427 -3.895799,6.274477 -8.194457,-7.800532 -10.431554,-20.529625 -1.965553,-28.576523 8.048835,-7.650384 18.514016,-6.715312 27.362926,0.81398 z"
         id="path14" /></g></g></svg>
